# xmcd
#
# Track frame offsets: 
#        150
#        15098
#        32688
#        50082
#        65573
#        83573
#        100701
#        118320
#        136984
#        157406
#
# Disc length: 2302 seconds
#
# Revision: 2
# Processed by: cddbd v1.5.2PL0 Copyright (c) Steve Scherf et al.
# Submitted via: ExactAudioCopyFreeDBPlugin 1.0
#
DISCID=8008fc0a
DTITLE=Nick 13 - Nick 13
DYEAR=2011
DGENRE=Country
TTITLE0=Nashville Winter
TTITLE1=Carry My Body Down
TTITLE2=101
TTITLE3=All Alone
TTITLE4=Restless Moon
TTITLE5=In The Orchard
TTITLE6=Someday
TTITLE7=Cupid's Victim
TTITLE8=Nighttime Sky
TTITLE9=Gambler's Life
EXTD=YEAR: 2011
EXTT0=
EXTT1=
EXTT2=
EXTT3=
EXTT4=
EXTT5=
EXTT6=
EXTT7=
EXTT8=
EXTT9=
PLAYORDER=
